grf
version=1
nRows=6
nColumns=37
inDegrees=no
endheader
time	ground_force_1_vx	ground_force_1_vy	ground_force_1_vz	ground_force_1_px	ground_force_1_py	ground_force_1_pz	ground_moment_1_mx	ground_moment_1_my	ground_moment_1_mz	ground_force_2_vx	ground_force_2_vy	ground_force_2_vz	ground_force_2_px	ground_force_2_py	ground_force_2_pz	ground_moment_2_mx	ground_moment_2_my	ground_moment_2_mz	ground_force_3_vx	ground_force_3_vy	ground_force_3_vz	ground_force_3_px	ground_force_3_py	ground_force_3_pz	ground_moment_3_mx	ground_moment_3_my	ground_moment_3_mz	ground_force_4_vx	ground_force_4_vy	ground_force_4_vz	ground_force_4_px	ground_force_4_py	ground_force_4_pz	ground_moment_4_mx	ground_moment_4_my	ground_moment_4_mz
      2.16000000	      0.00000000	     -0.00000000	      0.00000000	      0.00000000	      0.00000000	      0.00000000	      0.00000000	      0.00000000	      0.00000000	      0.03009717	      4.64981604	   -598.35064697	   -278.72214197	   -995.03165317	      0.00000000	      0.00000000	      0.00000000	   2040.31604231	      0.19221333	     -8.18450548	   -133.60879517	   -214.03920302	   -754.26910367	      0.00000000	      0.00000000	     -0.00000000	   -825.25742064	      0.00000000	     -0.00000000	      0.00000000	      0.00000000	      0.00000000	      0.00000000	      0.00000000	      0.00000000	      0.00000000
      2.17000000	      0.00000000	     -0.00000000	      0.00000000	      0.00000000	      0.00000000	      0.00000000	      0.00000000	      0.00000000	      0.00000000	      0.05899291	      4.59093618	   -605.70361328	   -278.39994486	   -996.18338935	      0.00000000	      0.00000000	     -0.00000000	   2177.08383913	      0.96056232	     -7.80188283	   -127.15122986	   -214.91772428	   -750.39688188	      0.00000000	      0.00000000	     -0.00000000	   -758.24651565	      0.00000000	     -0.00000000	      0.00000000	      0.00000000	      0.00000000	      0.00000000	      0.00000000	      0.00000000	      0.00000000
      2.18000000	      0.00000000	     -0.00000000	      0.00000000	      0.00000000	      0.00000000	      0.00000000	      0.00000000	      0.00000000	      0.00000000	     -0.68516695	      5.10892439	   -612.53417969	   -278.17733704	   -995.50159828	      0.00000000	      0.00000000	      0.00000000	   2305.86872203	      1.44920499	     -7.37525333	   -120.05255127	   -213.63365734	   -750.05288356	      0.00000000	      0.00000000	     -0.00000000	   -649.25199291	      0.00000000	     -0.00000000	      0.00000000	      0.00000000	      0.00000000	      0.00000000	      0.00000000	      0.00000000	      0.00000000
      2.19000000	      0.00000000	     -0.00000000	      0.00000000	      0.00000000	      0.00000000	      0.00000000	      0.00000000	      0.00000000	      0.00000000	     -1.56233180	      5.21298170	   -623.18145752	   -278.64696350	   -996.89296611	      0.00000000	     -0.00000000	      0.00000000	   2069.55150132	      2.18778146	     -6.75723238	   -111.96456909	   -216.48003978	   -750.43893988	      0.00000000	      0.00000000	     -0.00000000	   -681.35833065	      0.00000000	     -0.00000000	      0.00000000	      0.00000000	      0.00000000	      0.00000000	      0.00000000	      0.00000000	      0.00000000
      2.20000000	      0.00000000	     -0.00000000	      0.00000000	      0.00000000	      0.00000000	      0.00000000	      0.00000000	      0.00000000	      0.00000000	     -1.20299983	      6.40208673	   -632.01025391	   -278.48007466	   -997.68724934	      0.00000000	      0.00000000	      0.00000000	   2059.38135725	      2.89733904	     -6.18251826	   -102.82837677	   -214.26914498	   -752.80168974	      0.00000000	     -0.00000000	     -0.00000000	   -628.87862219	      0.00000000	     -0.00000000	      0.00000000	      0.00000000	      0.00000000	      0.00000000	      0.00000000	      0.00000000	      0.00000000
      2.21000000	      0.00000000	     -0.00000000	      0.00000000	      0.00000000	      0.00000000	      0.00000000	      0.00000000	      0.00000000	      0.00000000	     -1.29512751	      7.78195667	   -640.94818115	   -278.45717885	   -996.99963414	      0.00000000	      0.00000000	      0.00000000	   1900.35320758	      3.84273244	     -5.35748515	    -94.56051636	   -215.04953905	   -747.79710860	      0.00000000	      0.00000000	     -0.00000000	   -558.38039752	      0.00000000	     -0.00000000	      0.00000000	      0.00000000	      0.00000000	      0.00000000	      0.00000000	      0.00000000	      0.00000000
